<svg version="1.1" id="Layer_1" xmlns="http://www.w3.org/2000/svg" xmlns:xlink="http://www.w3.org/1999/xlink" x="0px" y="0px"
	 width="100%" viewBox="0 0 1024 1024" enable-background="new 0 0 1024 1024" xml:space="preserve">
<path fill="#FFFFFF" opacity="1.000000" stroke="none" 
	d="
M570.000000,1025.000000 
	C380.000000,1025.000000 190.500000,1025.000000 1.000000,1025.000000 
	C1.000000,683.666687 1.000000,342.333344 1.000000,1.000000 
	C342.333344,1.000000 683.666687,1.000000 1025.000000,1.000000 
	C1025.000000,342.333344 1025.000000,683.666687 1025.000000,1025.000000 
	C873.500000,1025.000000 722.000000,1025.000000 570.000000,1025.000000 
M805.756531,440.462860 
	C805.221497,439.850983 804.686462,439.239105 804.101501,438.224915 
	C804.101501,438.224915 803.752441,438.018585 803.714966,437.440063 
	C803.133606,436.717926 802.552185,435.995758 801.737854,434.646637 
	C801.070679,433.770966 800.403503,432.895294 799.689087,431.426758 
	C799.158997,430.873932 798.628906,430.321106 798.032227,429.316467 
	C798.032227,429.316467 797.681824,429.023529 797.616821,428.404449 
	C796.780090,427.495636 795.943359,426.586792 795.007996,425.249939 
	C795.007996,425.249939 794.627686,425.030212 794.544861,424.383667 
	C792.675598,422.107635 790.806335,419.831573 788.708618,416.914337 
	C788.373474,416.617004 788.038269,416.319672 787.642639,415.415100 
	C787.289490,414.688843 786.936279,413.962585 786.868103,412.411072 
	C790.582703,393.061829 792.213135,373.492706 791.386108,353.853058 
	C790.217346,326.097900 784.552063,299.155670 774.819031,273.089508 
	C763.109253,241.729126 746.746643,213.400543 723.093140,189.278580 
	C698.069641,163.759460 669.283020,143.949112 636.883423,129.212830 
	C619.596741,121.350319 601.769775,114.875961 583.003113,111.676437 
	C566.184265,108.809006 549.299377,105.749855 532.318237,104.549767 
	C506.825073,102.748154 481.634216,106.126205 456.654755,111.702576 
	C430.328888,117.579536 405.457672,126.957993 382.018097,140.175751 
	C348.320068,159.178314 320.492462,184.883041 297.100311,215.497467 
	C275.804138,243.368744 261.191193,274.643646 252.320694,308.405762 
	C242.442337,346.003815 241.338272,384.298492 245.967133,422.816956 
	C246.197830,424.736664 245.757599,426.737030 245.051453,429.048340 
	C220.319244,463.411194 209.702515,502.548981 207.267456,544.102173 
	C205.279068,578.032898 211.347382,611.137451 220.912796,643.559204 
	C232.682831,683.453430 250.943161,720.322144 277.977234,751.941040 
	C313.259399,793.206909 356.708771,823.736938 407.267242,843.927124 
	C439.522278,856.807922 473.171204,863.555237 507.648071,866.046875 
	C535.706238,868.074585 563.455139,865.324036 590.866882,858.691589 
	C628.312073,849.631409 663.877747,836.202087 696.391968,815.227905 
	C749.442871,781.005737 788.023315,734.529663 812.765320,676.668884 
	C815.952820,669.214661 821.076538,661.831787 820.487976,652.406372 
	C822.070679,648.918152 823.653320,645.429871 825.639465,641.346863 
	C825.684448,640.876587 825.729492,640.406311 826.193115,639.421143 
	C826.512695,637.934875 826.832275,636.448608 827.532959,634.340576 
	C827.574951,633.858887 827.616943,633.377136 828.176208,632.367859 
	C828.447632,630.912415 828.719055,629.456909 829.254395,627.586853 
	C829.400330,627.268433 829.403809,626.948425 829.757935,626.207886 
	C829.913025,625.194519 830.068115,624.181152 830.559021,622.454468 
	C830.562683,621.933594 830.566406,621.412720 831.080200,620.343689 
	C831.323059,618.870483 831.565857,617.397339 831.982117,615.816772 
	C831.982117,615.816772 831.868164,615.647705 832.106750,615.616272 
	C832.277222,615.367065 832.235657,615.174622 832.255371,614.554077 
	C832.232056,614.191345 832.208740,613.828674 832.654114,612.946289 
	C832.903442,611.618958 833.152771,610.291565 833.787903,608.369568 
	C833.816162,607.902100 833.844360,607.434692 834.218994,606.537231 
	C834.203491,606.004089 834.188049,605.470886 834.541809,604.312439 
	C834.560059,603.831482 834.578308,603.350525 835.032166,602.347595 
	C835.093323,601.219971 835.154480,600.092407 835.603821,598.229736 
	C835.632385,597.127441 835.660889,596.025208 836.128601,594.295532 
	C836.450195,590.854065 836.771729,587.412537 837.442017,583.162415 
	C837.474487,581.407776 837.506958,579.653137 838.000854,577.212830 
	C838.220520,572.822510 838.440186,568.432129 838.801086,563.353577 
	C838.757935,562.889343 838.714783,562.425049 838.895203,561.337036 
	C838.829712,560.905579 838.764160,560.474182 838.852722,559.143677 
	C838.778320,556.413513 838.703918,553.683411 838.805786,550.329651 
	C838.719177,549.912720 838.632568,549.495850 838.700989,548.238525 
	C838.577087,546.836914 838.453186,545.435242 838.513611,543.163757 
	C837.517883,536.148071 836.522095,529.132446 835.672729,521.337585 
	C835.508423,520.569580 835.344177,519.801575 835.400452,518.289978 
	C834.317688,514.053711 833.234924,509.817444 832.302490,504.921295 
	C832.105896,504.287506 831.909302,503.653748 831.803467,502.383057 
	C831.492920,501.603577 831.182434,500.824127 830.922424,499.331238 
	C830.737793,498.899078 830.553162,498.466919 830.527649,497.385986 
	C830.101257,496.383972 829.674866,495.381927 829.282043,493.684601 
	C829.029236,492.800110 828.776428,491.915649 828.614197,490.394928 
	C828.134705,489.437256 827.655273,488.479584 827.256348,486.981293 
	C827.117859,486.649750 826.979370,486.318207 826.909790,485.225525 
	C825.320801,481.368591 823.731812,477.511658 822.137146,473.071838 
	C821.973816,472.722839 821.810486,472.373840 821.688721,471.394104 
	C821.215271,470.715820 820.741821,470.037537 820.324585,469.172699 
	C820.324585,469.172699 820.205505,469.018463 820.215820,468.256073 
	C819.229919,466.292786 818.244019,464.329498 817.251892,461.812866 
	C816.909180,461.181671 816.566528,460.550446 816.144165,459.263519 
	C815.830627,458.967224 815.517090,458.670929 815.240051,457.724213 
	C814.715210,456.803894 814.190369,455.883545 813.721130,454.491638 
	C813.613281,454.159973 813.390320,453.951324 812.994629,453.373230 
	C812.994629,453.373230 812.640930,453.025848 812.575378,452.357635 
	C811.411194,450.507690 810.247070,448.657745 808.986206,446.160858 
	C808.504150,445.451172 808.022095,444.741486 807.536621,443.466309 
	C806.985779,442.735626 806.434937,442.004944 805.950317,441.120636 
	C805.950317,441.120636 805.787659,441.081604 805.756531,440.462860 
z"/>
<path fill="#01A4B8" opacity="1.000000" stroke="none" 
	d="
M245.629761,428.699829 
	C245.757599,426.737030 246.197830,424.736664 245.967133,422.816956 
	C241.338272,384.298492 242.442337,346.003815 252.320694,308.405762 
	C261.191193,274.643646 275.804138,243.368744 297.100311,215.497467 
	C320.492462,184.883041 348.320068,159.178314 382.018097,140.175751 
	C405.457672,126.957993 430.328888,117.579536 456.654755,111.702576 
	C481.634216,106.126205 506.825073,102.748154 532.318237,104.549767 
	C549.299377,105.749855 566.184265,108.809006 583.003113,111.676437 
	C601.769775,114.875961 619.596741,121.350319 636.883423,129.212830 
	C669.283020,143.949112 698.069641,163.759460 723.093140,189.278580 
	C746.746643,213.400543 763.109253,241.729126 774.819031,273.089508 
	C784.552063,299.155670 790.217346,326.097900 791.386108,353.853058 
	C792.213135,373.492706 790.582703,393.061829 786.578979,412.958679 
	C786.123779,413.726959 786.011414,413.972260 785.681458,414.030884 
	C783.102661,411.215179 780.898926,408.509613 778.470337,406.023682 
	C766.680054,393.955109 753.445923,383.962372 738.247559,376.364807 
	C723.145203,368.815277 707.858826,362.321014 690.827026,360.870789 
	C690.184326,360.816071 689.606201,360.002930 689.299927,359.263733 
	C688.851929,354.620026 688.370178,350.189362 687.308228,345.902466 
	C680.719727,319.306946 669.075500,295.338928 650.088623,275.263977 
	C621.207275,244.727341 586.761902,224.632736 544.684998,218.419479 
	C514.083130,213.900635 484.746704,217.916534 456.651031,230.584000 
	C422.361938,246.043884 396.303101,270.836090 376.423859,302.465576 
	C364.339294,321.692993 355.512939,342.315796 352.403442,364.833649 
	C348.723877,391.479950 349.771515,417.958740 359.000549,443.661469 
	C365.520508,461.819550 375.578094,477.564209 389.557190,490.956360 
	C399.101776,500.100220 410.156036,506.494110 422.135956,511.615173 
	C420.717590,512.614990 419.480438,513.256104 418.871399,513.571716 
	C420.318665,517.463379 421.610199,520.965454 422.923096,524.459595 
	C424.639038,529.026611 426.003967,533.771240 428.174683,538.112061 
	C432.563416,546.888123 437.257446,555.520630 442.097351,564.058228 
	C444.607025,568.485352 447.687012,572.590210 450.541382,576.819031 
	C450.804840,577.209351 451.332184,577.410645 451.684052,577.753906 
	C455.351227,581.331726 459.078308,584.851868 462.647522,588.525330 
	C466.428284,592.416443 470.033112,596.477966 473.763550,600.418884 
	C475.003418,601.728699 476.259705,603.096802 477.742615,604.088013 
	C481.456421,606.570435 485.304169,608.852539 488.851013,611.479736 
	C476.317139,614.429871 464.123840,618.785767 451.725708,619.479187 
	C418.095337,621.359985 385.889954,614.184570 356.190155,598.270691 
	C341.778839,590.548706 328.592377,580.534607 314.902771,571.480591 
	C313.477356,570.537842 312.358978,568.733215 311.475952,571.660461 
	C309.120575,567.736389 307.543854,563.558228 304.739929,560.508301 
	C288.277710,542.601746 276.105469,521.964661 266.586029,499.829620 
	C259.061768,482.333862 253.368652,464.133759 249.893829,445.304901 
	C248.859192,439.698517 247.072067,434.230988 245.629761,428.699829 
z"/>
<path fill="#0161A3" opacity="1.000000" stroke="none" 
	d="
M245.340607,428.874084 
	C247.072067,434.230988 248.859192,439.698517 249.893829,445.304901 
	C253.368652,464.133759 259.061768,482.333862 266.586029,499.829620 
	C276.105469,521.964661 288.277710,542.601746 304.739929,560.508301 
	C307.543854,563.558228 309.120575,567.736389 311.607880,572.069824 
	C313.249878,581.460693 314.485962,590.184998 315.857544,598.887878 
	C321.521332,634.825073 336.849182,665.955322 362.570404,691.770996 
	C391.841431,721.149536 427.108459,739.809631 467.043854,750.374817 
	C498.737579,758.759705 530.656250,760.440491 562.952393,755.296753 
	C572.277466,753.811584 581.500916,751.688538 591.186157,749.922119 
	C595.560242,748.969177 599.670654,748.336731 603.444580,746.850037 
	C610.079102,744.236389 616.507690,741.100159 623.214600,738.067627 
	C623.406677,737.952454 623.852600,737.910889 624.215576,737.963013 
	C626.079407,737.116516 627.580322,736.217957 629.272583,735.138428 
	C629.793396,734.845520 630.122986,734.733582 630.828125,734.724243 
	C633.158081,733.635986 635.112305,732.445190 637.229248,731.112000 
	C637.391968,730.969604 637.818481,730.898010 638.180847,730.930420 
	C640.385315,729.727844 642.227417,728.492859 644.201416,727.099854 
	C644.333313,726.941772 644.733215,726.843506 645.052246,726.891113 
	C645.945435,726.421082 646.519531,725.903442 647.320862,725.136597 
	C649.264648,723.866577 650.981140,722.845825 653.025024,721.870728 
	C653.926453,721.369873 654.500549,720.823425 655.171021,720.104553 
	C655.267456,719.932190 655.634216,719.785278 656.003296,719.834351 
	C658.865723,717.853210 661.359070,715.823059 663.894287,713.874146 
	C663.936157,713.955383 663.810486,713.822754 664.144287,713.859436 
	C664.995667,713.285156 665.513306,712.674194 666.202148,711.825134 
	C667.154541,711.004089 667.935791,710.421204 669.069092,709.879089 
	C670.653198,708.690918 671.885315,707.461853 673.115112,706.155762 
	C673.112793,706.078735 673.265137,706.102356 673.454834,706.056274 
	C673.891541,705.868835 674.026123,705.656311 674.256409,705.094116 
	C677.246033,702.177429 680.027527,699.539368 683.088623,696.846680 
	C683.554016,696.478088 683.739868,696.164001 684.086426,695.566895 
	C686.367126,693.116882 688.487122,690.949951 690.920715,688.719116 
	C691.402283,688.285950 691.570190,687.916687 691.800598,687.385864 
	C691.863098,687.224182 692.162781,687.050049 692.476746,687.006714 
	C693.183533,686.288635 693.576416,685.613831 694.109680,684.649658 
	C695.507751,682.911011 696.765442,681.461853 698.355225,679.973877 
	C699.095581,679.236511 699.503845,678.537903 699.994995,677.571411 
	C700.447266,676.896118 700.816711,676.488770 701.505859,676.029541 
	C702.176270,675.272583 702.526978,674.567566 702.929810,673.910156 
	C702.981995,673.957703 702.852600,673.901245 703.137939,673.795105 
	C703.528198,673.317383 703.633179,672.945862 703.790039,672.405151 
	C703.841980,672.236023 704.138184,672.042419 704.472290,671.988464 
	C705.144287,671.187073 705.482117,670.439636 705.880127,669.501099 
	C705.940186,669.310059 706.261047,669.070251 706.579895,669.007751 
	C707.222412,668.221375 707.546143,667.497559 707.954468,666.468628 
	C708.773499,665.129944 709.507935,664.096252 710.570190,662.998047 
	C712.280334,660.316589 713.662781,657.699707 715.139771,654.730774 
	C716.091919,652.903259 716.949402,651.427795 717.906494,649.901917 
	C718.006104,649.851562 718.086487,649.433105 718.209045,649.085693 
	C719.762207,645.863831 721.192749,642.989258 722.925049,639.990051 
	C723.984314,637.703552 724.741821,635.541687 725.532715,633.071899 
	C725.810852,632.200684 726.055664,631.637390 726.640747,630.974548 
	C727.147766,630.038879 727.314514,629.202820 727.512146,628.017456 
	C727.902222,626.817810 728.261353,625.967346 728.900452,625.001770 
	C729.789673,623.591125 730.398865,622.295593 731.367737,620.958557 
	C732.878296,619.220398 734.649841,617.664734 735.072754,615.802734 
	C736.926636,607.641602 738.356323,599.384949 740.006470,591.176392 
	C741.182068,585.328369 742.077942,579.384949 743.800232,573.696472 
	C745.746521,567.267944 745.996765,560.861816 744.983704,554.386230 
	C744.006958,548.142273 745.030518,542.531250 748.829834,537.436462 
	C749.268005,536.848877 749.519043,535.987427 749.540405,535.243896 
	C749.788696,526.608276 750.423157,525.957214 758.751709,526.193420 
	C759.509949,524.053833 759.911133,521.635315 761.135498,519.751831 
	C763.268372,516.470520 765.372681,511.727814 768.449341,510.807281 
	C774.594543,508.968689 775.673645,504.190826 777.893555,499.763794 
	C778.684570,498.186371 779.725159,496.713531 780.341431,495.076080 
	C780.778564,493.914520 780.758545,492.560425 780.827942,491.286011 
	C780.920898,489.579376 780.780884,487.853088 780.970032,486.160797 
	C781.132324,484.708801 781.969727,483.274628 781.897217,481.863953 
	C781.587402,475.832275 782.936157,473.910706 788.834290,471.932556 
	C791.625305,470.996490 794.486206,469.977325 796.943176,468.411499 
	C799.916809,466.516327 802.496277,464.002747 805.372559,461.653687 
	C804.040833,461.153046 802.536255,460.587433 800.663086,459.883240 
	C804.352783,457.419617 810.083557,460.680450 811.786926,464.766388 
	C814.790466,471.971222 817.504578,479.533600 821.934082,485.823669 
	C824.875305,490.000336 824.177368,494.313263 825.575684,498.419067 
	C826.216614,500.300842 825.274536,502.726807 825.930420,504.597473 
	C827.929321,510.298645 830.379456,515.840576 832.587952,521.470520 
	C832.874573,522.201233 832.818848,523.082642 832.845093,523.896729 
	C833.106873,532.026672 833.411316,540.155823 833.587830,548.287720 
	C833.801147,558.112366 833.693298,567.949097 834.152100,577.760620 
	C834.342468,581.830811 830.756592,586.229492 835.002441,590.402832 
	C834.975403,591.870972 834.950745,592.938843 834.555908,594.088623 
	C833.791260,597.782043 833.396851,601.393433 833.000488,605.253662 
	C832.998535,605.502380 832.992676,606.000000 832.644287,606.057617 
	C831.121338,607.996155 828.216980,609.746399 831.930542,612.360596 
	C832.067749,612.975708 832.126587,613.220825 832.185425,613.465942 
	C832.208740,613.828674 832.232056,614.191345 832.078003,614.946350 
	C831.900696,615.338623 831.868164,615.647705 831.868164,615.647705 
	C831.868164,615.647705 831.982117,615.816772 831.687622,615.876038 
	C831.393127,615.935303 830.977844,615.955811 830.793945,615.732605 
	C830.413147,616.344482 830.216125,617.179565 830.012085,618.346924 
	C829.977478,619.121399 829.949890,619.563721 829.563721,620.080383 
	C827.949280,622.896240 826.282104,625.533875 825.556213,628.409119 
	C824.865173,631.146057 825.156921,634.131042 825.012329,637.326538 
	C825.263550,638.409363 825.518982,639.172729 825.774475,639.936035 
	C825.729492,640.406311 825.684448,640.876587 825.234619,641.652344 
	C824.560181,641.989197 824.289673,642.005615 823.722534,642.034241 
	C823.288391,642.710022 823.149963,643.358704 823.007996,644.397522 
	C821.994141,647.481140 820.983826,650.174561 819.973511,652.867981 
	C821.076538,661.831787 815.952820,669.214661 812.765320,676.668884 
	C788.023315,734.529663 749.442871,781.005737 696.391968,815.227905 
	C663.877747,836.202087 628.312073,849.631409 590.866882,858.691589 
	C563.455139,865.324036 535.706238,868.074585 507.648071,866.046875 
	C473.171204,863.555237 439.522278,856.807922 407.267242,843.927124 
	C356.708771,823.736938 313.259399,793.206909 277.977234,751.941040 
	C250.943161,720.322144 232.682831,683.453430 220.912796,643.559204 
	C211.347382,611.137451 205.279068,578.032898 207.267456,544.102173 
	C209.702515,502.548981 220.319244,463.411194 245.340607,428.874084 
z"/>
<path fill="#015FA0" opacity="1.000000" stroke="none" 
	d="
M835.004883,590.002441 
	C830.756592,586.229492 834.342468,581.830811 834.152100,577.760620 
	C833.693298,567.949097 833.801147,558.112366 833.587830,548.287720 
	C833.411316,540.155823 833.106873,532.026672 832.845093,523.896729 
	C832.818848,523.082642 832.874573,522.201233 832.587952,521.470520 
	C830.379456,515.840576 827.929321,510.298645 825.930420,504.597473 
	C825.274536,502.726807 826.216614,500.300842 825.575684,498.419067 
	C824.177368,494.313263 824.875305,490.000336 821.934082,485.823669 
	C817.504578,479.533600 814.790466,471.971222 811.786926,464.766388 
	C810.083557,460.680450 804.352783,457.419617 800.663086,459.883240 
	C802.536255,460.587433 804.040833,461.153046 805.372559,461.653687 
	C802.496277,464.002747 799.916809,466.516327 796.943176,468.411499 
	C794.486206,469.977325 791.625305,470.996490 788.834290,471.932556 
	C782.936157,473.910706 781.587402,475.832275 781.897217,481.863953 
	C781.969727,483.274628 781.132324,484.708801 780.970032,486.160797 
	C780.780884,487.853088 780.920898,489.579376 780.827942,491.286011 
	C780.758545,492.560425 780.778564,493.914520 780.341431,495.076080 
	C779.725159,496.713531 778.684570,498.186371 777.893555,499.763794 
	C775.673645,504.190826 774.594543,508.968689 768.449341,510.807281 
	C765.372681,511.727814 763.268372,516.470520 761.135498,519.751831 
	C759.911133,521.635315 759.509949,524.053833 758.751709,526.193420 
	C750.423157,525.957214 749.788696,526.608276 749.540405,535.243896 
	C749.519043,535.987427 749.268005,536.848877 748.829834,537.436462 
	C745.030518,542.531250 744.006958,548.142273 744.983704,554.386230 
	C745.996765,560.861816 745.746521,567.267944 743.800232,573.696472 
	C742.077942,579.384949 741.182068,585.328369 740.006470,591.176392 
	C738.356323,599.384949 736.926636,607.641602 735.072754,615.802734 
	C734.649841,617.664734 732.878296,619.220398 731.364746,620.576294 
	C730.941040,619.730652 730.880127,619.225891 730.862061,618.384766 
	C731.088318,617.398254 731.271545,616.748169 731.762939,615.990845 
	C732.430542,613.930969 732.789978,611.978333 733.151123,609.687500 
	C733.330627,608.940613 733.508484,608.531921 733.918274,608.048584 
	C734.179382,607.331116 734.208557,606.688171 734.232117,605.705811 
	C734.400024,604.951782 734.573547,604.537231 734.995483,604.008850 
	C735.256653,602.948853 735.269409,602.002747 735.268311,600.718994 
	C735.403076,599.961121 735.551697,599.540771 735.954834,599.004517 
	C736.179199,597.933105 736.148987,596.977539 736.091614,595.621582 
	C736.290649,594.188538 736.516785,593.156006 737.010986,591.994507 
	C737.294617,590.600464 737.310059,589.335205 737.308716,587.731323 
	C737.432312,586.966248 737.572815,586.539978 738.010437,585.922852 
	C738.328430,582.822693 738.349304,579.913391 738.332214,576.639038 
	C738.413879,575.553467 738.533508,574.832947 738.970825,573.915588 
	C739.507080,567.718689 739.811707,561.719543 739.874939,555.717834 
	C739.888367,554.447266 739.019592,553.167358 738.469360,551.492554 
	C738.356689,549.729858 738.332031,548.366333 738.532410,546.699219 
	C738.390625,543.891357 738.023682,541.387268 737.505615,538.575256 
	C737.357361,537.814453 737.360168,537.361450 737.582703,536.664795 
	C737.386719,534.910950 736.971008,533.400757 736.434937,531.578979 
	C736.305115,530.824463 736.295715,530.381531 736.510498,529.693237 
	C736.038452,527.259705 735.342285,525.071594 734.504761,522.579346 
	C734.330627,521.831421 734.297913,521.387695 734.473145,520.739258 
	C734.067810,518.984375 733.454590,517.434204 732.676453,515.549927 
	C732.044373,513.815613 731.577209,512.415466 731.268066,510.903168 
	C731.238342,510.539368 731.050598,510.287659 730.771484,509.902069 
	C730.680054,509.768219 730.706238,509.445099 730.791748,509.112091 
	C730.344238,507.843994 729.811279,506.908936 729.096375,505.662109 
	C727.812256,502.748810 726.709961,500.147278 725.642456,497.219971 
	C725.350464,496.647430 725.023621,496.400635 724.500000,495.970154 
	C724.151794,495.275085 724.000305,494.763702 723.887695,493.890503 
	C722.884399,492.050751 721.842041,490.572784 720.572021,488.853882 
	C715.245300,482.359558 710.146301,476.106171 705.011353,469.515320 
	C703.938416,468.477325 702.901428,467.776794 701.589111,466.945740 
	C700.563660,466.134918 699.813599,465.454620 699.010315,464.457642 
	C698.251343,463.790771 697.545715,463.440613 696.501648,462.939636 
	C695.378723,462.189880 694.594177,461.590942 693.783936,460.965576 
	C693.758179,460.939117 693.617310,460.912140 693.311768,460.783569 
	C691.931458,459.905823 690.856689,459.156647 689.685791,458.089050 
	C689.181091,457.720123 688.772583,457.669525 688.044739,457.523315 
	C685.779846,456.363190 683.834167,455.298676 681.733643,453.901764 
	C679.953369,453.110748 678.328064,452.652191 676.412170,452.197449 
	C675.769836,452.050018 675.418091,451.898773 674.973999,451.398071 
	C671.593567,450.332031 668.305420,449.615509 664.573853,448.931030 
	C661.792969,448.728577 659.455627,448.494080 656.943604,447.972046 
	C653.476379,447.945343 650.183838,448.206177 646.537231,448.579834 
	C645.443909,448.739777 644.704590,448.786865 643.734009,448.598450 
	C641.626709,449.001984 639.750549,449.641022 637.586487,450.435669 
	C636.866577,450.627319 636.434631,450.663361 635.742554,450.487427 
	C632.967834,451.440918 630.453247,452.606354 627.671997,453.937683 
	C626.476318,454.577301 625.547302,455.051056 624.349121,455.417297 
	C623.675598,455.658112 623.271301,456.006439 622.660645,456.562866 
	C622.097717,456.923431 621.741089,457.075897 621.081726,457.240082 
	C620.551331,457.564240 620.323730,457.876648 619.891724,458.450500 
	C615.872009,461.850403 612.056763,464.988861 607.948853,468.199799 
	C607.497803,468.621704 607.339355,468.971130 607.117004,469.513794 
	C607.053040,469.707031 606.733887,469.959747 606.527832,470.028503 
	C606.065613,470.281921 605.938477,470.532166 605.774780,471.165039 
	C605.124084,472.005768 604.638977,472.529449 604.066284,473.083649 
	C603.978760,473.114197 603.921509,473.456757 603.766418,473.771423 
	C602.213745,476.127197 600.816162,478.168304 599.077026,480.292480 
	C598.130127,481.865723 597.524658,483.355865 596.865784,485.152405 
	C596.277466,486.340607 595.742615,487.222351 594.918945,488.241272 
	C594.571655,488.777344 594.513184,489.176178 594.385986,489.913208 
	C593.366333,492.131622 592.415344,494.011841 591.163086,496.001465 
	C590.591919,497.092438 590.321899,498.074066 590.023621,499.034912 
	C589.995361,499.014099 590.061768,499.034882 589.794922,499.190430 
	C589.475098,499.734741 589.421997,500.123505 589.288330,500.848938 
	C588.272095,503.084808 587.336548,504.984100 586.103516,507.006439 
	C584.835266,509.683746 583.864563,512.238037 582.825928,515.138062 
	C582.270508,516.282837 581.782837,517.081909 581.029053,518.012390 
	C580.569275,518.863037 580.375732,519.582214 580.115906,520.593994 
	C579.832214,521.218811 579.614868,521.551025 579.092346,522.019836 
	C578.331299,523.626099 577.875427,525.095825 577.346802,526.831543 
	C577.054626,527.388184 576.835022,527.679016 576.417725,528.092285 
	C576.004578,528.479370 575.949768,528.773865 576.006714,529.449951 
	C573.030640,535.229980 570.103577,540.658386 566.893066,546.204224 
	C566.500244,546.695679 566.390808,547.069824 566.215881,547.721924 
	C565.552551,548.702576 564.954773,549.405334 564.037231,550.217957 
	C563.499329,550.936340 563.281067,551.544861 563.004761,552.479004 
	C562.161743,553.859558 561.376953,554.914612 560.248657,555.965210 
	C557.145447,554.003906 554.578674,550.865540 551.579163,550.375366 
	C547.401489,549.692627 544.754517,548.740662 544.094788,544.261719 
	C543.972656,543.433044 542.748962,542.701721 541.931396,542.054626 
	C540.472717,540.900208 538.727844,540.040710 537.472107,538.709473 
	C534.059082,535.091125 530.258240,531.741394 529.463989,526.295166 
	C529.256226,524.870728 527.844543,523.225098 526.531982,522.432556 
	C522.509521,520.003845 520.832703,516.081543 519.201904,512.073975 
	C518.121216,509.418427 516.888672,506.776276 516.238159,504.007355 
	C515.554688,501.097900 515.796143,497.966553 515.073486,495.071960 
	C513.939148,490.528015 512.343628,486.098663 510.920105,481.628174 
	C510.724426,481.013611 510.535309,480.067535 510.106384,479.906830 
	C504.991821,477.990448 505.650482,474.387848 507.855896,470.277466 
	C507.389709,470.045715 506.923523,469.813965 506.457336,469.582214 
	C502.914520,472.558289 499.371704,475.534363 495.604156,478.699249 
	C495.406433,477.800568 495.213623,476.924164 495.006653,476.028076 
	C494.992523,476.008392 495.040955,476.008179 495.286530,475.813141 
	C495.636108,475.219299 495.740112,474.820526 495.813934,474.181763 
	C496.089783,473.598175 496.395752,473.254608 497.022583,472.748962 
	C497.476074,472.139954 497.608734,471.692963 497.714935,470.907227 
	C503.947601,458.819672 510.057343,446.988312 516.493042,435.337036 
	C538.120728,396.182068 570.986694,371.976990 614.514648,362.096893 
	C639.176453,356.499115 664.041382,356.639771 688.997925,359.543213 
	C689.606201,360.002930 690.184326,360.816071 690.827026,360.870789 
	C707.858826,362.321014 723.145203,368.815277 738.247559,376.364807 
	C753.445923,383.962372 766.680054,393.955109 778.470337,406.023682 
	C780.898926,408.509613 783.102661,411.215179 785.733032,414.300171 
	C786.605042,415.194702 787.154053,415.608551 787.703064,416.022369 
	C788.038269,416.319672 788.373474,416.617004 788.834717,417.560760 
	C790.849854,420.481537 792.738770,422.755859 794.627686,425.030212 
	C794.627686,425.030212 795.007996,425.249939 795.108643,425.790039 
	C796.033508,427.227905 796.857666,428.125702 797.681824,429.023529 
	C797.681824,429.023529 798.032227,429.316467 798.051514,429.865326 
	C798.625916,430.949310 799.181091,431.484467 799.736267,432.019592 
	C800.403503,432.895294 801.070679,433.770966 801.851929,435.275940 
	C802.561523,436.609711 803.156982,437.314148 803.752441,438.018585 
	C803.752441,438.018585 804.101501,438.224915 804.094849,438.767670 
	C804.654602,439.900818 805.221130,440.491211 805.787659,441.081604 
	C805.787659,441.081604 805.950317,441.120636 805.934021,441.500458 
	C806.458557,442.597443 806.999329,443.314606 807.540100,444.031799 
	C808.022095,444.741486 808.504150,445.451172 809.027344,446.844971 
	C810.259216,449.361359 811.450073,451.193604 812.640930,453.025848 
	C812.640930,453.025848 812.994629,453.373230 813.045898,453.840607 
	C813.191406,454.608948 813.380859,454.827362 813.665527,454.963196 
	C814.190369,455.883545 814.715210,456.803894 815.244385,458.390198 
	C815.573792,459.343872 815.898804,459.631561 816.223816,459.919250 
	C816.566528,460.550446 816.909180,461.181671 817.194092,462.485748 
	C818.159424,465.111908 819.182434,467.065186 820.205505,469.018463 
	C820.205505,469.018463 820.324585,469.172699 820.226807,469.617004 
	C820.635132,470.715820 821.141113,471.370331 821.647095,472.024841 
	C821.810486,472.373840 821.973816,472.722839 822.092041,473.772522 
	C823.644897,478.311005 825.242920,482.148804 826.840881,485.986633 
	C826.979370,486.318207 827.117859,486.649750 827.155884,487.614197 
	C827.544861,489.175140 828.034241,490.103149 828.523621,491.031158 
	C828.776428,491.915649 829.029236,492.800110 829.189697,494.394409 
	C829.521057,496.081085 829.944763,497.057922 830.368530,498.034760 
	C830.553162,498.466919 830.737793,498.899078 830.663940,499.879730 
	C830.841248,501.292145 831.276978,502.156036 831.712708,503.019958 
	C831.909302,503.653748 832.105896,504.287506 832.166382,505.700256 
	C833.080139,510.664032 834.130005,514.848816 835.179932,519.033569 
	C835.344177,519.801575 835.508423,520.569580 835.407593,522.048096 
	C835.677307,526.771973 836.168884,530.791626 836.761292,534.796448 
	C837.218262,537.885254 837.802002,540.955261 838.329346,544.033630 
	C838.453186,545.435242 838.577087,546.836914 838.465820,548.817688 
	C838.363647,549.915649 838.496582,550.434448 838.629517,550.953247 
	C838.703918,553.683411 838.778320,556.413513 838.593445,559.741943 
	C838.446655,560.880432 838.559143,561.420593 838.671631,561.960815 
	C838.714783,562.425049 838.757935,562.889343 838.430298,563.926025 
	C837.886108,568.965149 837.712769,573.431824 837.539429,577.898499 
	C837.506958,579.653137 837.474487,581.407776 837.000122,583.749390 
	C836.040405,586.225037 835.522644,588.113770 835.004883,590.002441 
M785.694214,459.896149 
	C784.218994,460.172791 782.743774,460.449463 781.268555,460.726135 
	C781.851257,462.777679 782.433899,464.829193 783.016541,466.880737 
	C783.538757,466.788971 784.060974,466.697205 784.583191,466.605408 
	C785.025146,464.617889 785.467102,462.630341 785.694214,459.896149 
M774.202515,496.609375 
	C774.206726,496.214508 774.210938,495.819641 774.215149,495.424774 
	C774.051270,495.423279 773.745056,495.410767 773.744202,495.421906 
	C773.713806,495.814789 773.712158,496.209869 774.202515,496.609375 
M773.797485,489.390625 
	C773.793274,489.785522 773.789062,490.180389 773.784851,490.575287 
	C773.948730,490.576782 774.255005,490.589264 774.255859,490.578156 
	C774.286133,490.185211 774.287842,489.790100 773.797485,489.390625 
M776.431274,484.703339 
	C776.704163,484.989319 776.977051,485.275269 777.249939,485.561218 
	C777.368225,485.448029 777.595703,485.242706 777.589172,485.234985 
	C777.334473,484.933380 777.058533,484.649811 776.431274,484.703339 
z"/>
<path fill="#1269A7" opacity="1.000000" stroke="none" 
	d="
M838.421509,543.598694 
	C837.802002,540.955261 837.218262,537.885254 836.761292,534.796448 
	C836.168884,530.791626 835.677307,526.771973 835.334351,522.437744 
	C836.522095,529.132446 837.517883,536.148071 838.421509,543.598694 
z"/>
<path fill="#015FA0" opacity="1.000000" stroke="none" 
	d="
M825.016602,637.007080 
	C825.156921,634.131042 824.865173,631.146057 825.556213,628.409119 
	C826.282104,625.533875 827.949280,622.896240 829.628845,620.258789 
	C830.148926,620.613708 830.321411,620.790039 830.570068,620.891846 
	C830.566406,621.412720 830.562683,621.933594 830.186157,623.046143 
	C829.630432,624.634155 829.447632,625.630554 829.264832,626.626892 
	C829.403809,626.948425 829.400330,627.268433 828.868530,627.981812 
	C828.208069,629.882935 827.933472,631.389221 827.658936,632.895447 
	C827.616943,633.377136 827.574951,633.858887 827.111145,634.754089 
	C826.131775,635.780762 825.574158,636.393921 825.016602,637.007080 
z"/>
<path fill="#1269A7" opacity="1.000000" stroke="none" 
	d="
M837.770142,577.555664 
	C837.712769,573.431824 837.886108,568.965149 838.359680,564.270142 
	C838.440186,568.432129 838.220520,572.822510 837.770142,577.555664 
z"/>
<path fill="#015FA0" opacity="1.000000" stroke="none" 
	d="
M833.002441,605.004883 
	C833.396851,601.393433 833.791260,597.782043 834.636597,594.278809 
	C835.213074,594.650024 835.413757,594.828674 835.689453,594.922913 
	C835.660889,596.025208 835.632385,597.127441 835.153320,598.719482 
	C834.667358,600.429382 834.631958,601.649475 834.596558,602.869568 
	C834.578308,603.350525 834.560059,603.831482 834.161865,604.631714 
	C833.522949,604.980896 833.263123,604.998840 833.002441,605.004883 
z"/>
<path fill="#1269A7" opacity="1.000000" stroke="none" 
	d="
M835.290161,518.661743 
	C834.130005,514.848816 833.080139,510.664032 832.091187,506.030212 
	C833.234924,509.817444 834.317688,514.053711 835.290161,518.661743 
z"/>
<path fill="#1269A7" opacity="1.000000" stroke="none" 
	d="
M820.230713,652.637207 
	C820.983826,650.174561 821.994141,647.481140 823.249451,644.227295 
	C823.669006,643.113586 823.843628,642.560303 824.018250,642.007080 
	C824.289673,642.005615 824.560181,641.989197 825.032837,641.949707 
	C823.653320,645.429871 822.070679,648.918152 820.230713,652.637207 
z"/>
<path fill="#1269A7" opacity="1.000000" stroke="none" 
	d="
M826.875366,485.606079 
	C825.242920,482.148804 823.644897,478.311005 822.094910,474.063965 
	C823.731812,477.511658 825.320801,481.368591 826.875366,485.606079 
z"/>
<path fill="#1269A7" opacity="1.000000" stroke="none" 
	d="
M835.909058,594.609253 
	C835.413757,594.828674 835.213074,594.650024 835.006714,594.196899 
	C834.950745,592.938843 834.975403,591.870972 835.002441,590.402832 
	C835.522644,588.113770 836.040405,586.225037 836.825684,584.153687 
	C836.771729,587.412537 836.450195,590.854065 835.909058,594.609253 
z"/>
<path fill="#1269A7" opacity="1.000000" stroke="none" 
	d="
M794.586304,424.706909 
	C792.738770,422.755859 790.849854,420.481537 788.948975,417.881348 
	C790.806335,419.831573 792.675598,422.107635 794.586304,424.706909 
z"/>
<path fill="#015FA0" opacity="1.000000" stroke="none" 
	d="
M831.852051,611.990662 
	C828.216980,609.746399 831.121338,607.996155 832.734497,606.265869 
	C833.335938,606.689392 833.569092,606.872986 833.872559,606.967224 
	C833.844360,607.434692 833.816162,607.902100 833.305237,608.769531 
	C832.499084,610.109863 832.175598,611.050232 831.852051,611.990662 
z"/>
<path fill="#1269A7" opacity="1.000000" stroke="none" 
	d="
M812.608154,452.691742 
	C811.450073,451.193604 810.259216,449.361359 809.075684,447.168427 
	C810.247070,448.657745 811.411194,450.507690 812.608154,452.691742 
z"/>
<path fill="#1269A7" opacity="1.000000" stroke="none" 
	d="
M825.012329,637.326538 
	C825.574158,636.393921 826.131775,635.780762 826.920593,635.064941 
	C826.832275,636.448608 826.512695,637.934875 825.983765,639.678589 
	C825.518982,639.172729 825.263550,638.409363 825.012329,637.326538 
z"/>
<path fill="#1269A7" opacity="1.000000" stroke="none" 
	d="
M820.210693,468.637268 
	C819.182434,467.065186 818.159424,465.111908 817.197266,462.762390 
	C818.244019,464.329498 819.229919,466.292786 820.210693,468.637268 
z"/>
<path fill="#1269A7" opacity="1.000000" stroke="none" 
	d="
M834.814331,602.608582 
	C834.631958,601.649475 834.667358,600.429382 834.959229,599.087036 
	C835.154480,600.092407 835.093323,601.219971 834.814331,602.608582 
z"/>
<path fill="#1269A7" opacity="1.000000" stroke="none" 
	d="
M830.825134,620.617798 
	C830.321411,620.790039 830.148926,620.613708 829.987427,620.184448 
	C829.949890,619.563721 829.977478,619.121399 830.253174,618.169067 
	C830.660156,617.091248 830.819031,616.523499 830.977844,615.955811 
	C830.977844,615.955811 831.393127,615.935303 831.600952,615.929688 
	C831.565857,617.397339 831.323059,618.870483 830.825134,620.617798 
z"/>
<path fill="#1269A7" opacity="1.000000" stroke="none" 
	d="
M831.930481,612.360596 
	C832.175598,611.050232 832.499084,610.109863 833.112305,609.066895 
	C833.152771,610.291565 832.903442,611.618958 832.419800,613.206116 
	C832.126587,613.220825 832.067749,612.975708 831.930481,612.360596 
z"/>
<path fill="#1269A7" opacity="1.000000" stroke="none" 
	d="
M827.917603,632.631653 
	C827.933472,631.389221 828.208069,629.882935 828.736572,628.189087 
	C828.719055,629.456909 828.447632,630.912415 827.917603,632.631653 
z"/>
<path fill="#1269A7" opacity="1.000000" stroke="none" 
	d="
M831.758057,502.701508 
	C831.276978,502.156036 830.841248,501.292145 830.638672,500.236450 
	C831.182434,500.824127 831.492920,501.603577 831.758057,502.701508 
z"/>
<path fill="#1269A7" opacity="1.000000" stroke="none" 
	d="
M797.649292,428.713989 
	C796.857666,428.125702 796.033508,427.227905 795.157959,426.004028 
	C795.943359,426.586792 796.780090,427.495636 797.649292,428.713989 
z"/>
<path fill="#1269A7" opacity="1.000000" stroke="none" 
	d="
M830.448059,497.710388 
	C829.944763,497.057922 829.521057,496.081085 829.172852,494.742065 
	C829.674866,495.381927 830.101257,496.383972 830.448059,497.710388 
z"/>
<path fill="#1269A7" opacity="1.000000" stroke="none" 
	d="
M829.511353,626.417358 
	C829.447632,625.630554 829.630432,624.634155 830.018188,623.402832 
	C830.068115,624.181152 829.913025,625.194519 829.511353,626.417358 
z"/>
<path fill="#1269A7" opacity="1.000000" stroke="none" 
	d="
M803.733704,437.729309 
	C803.156982,437.314148 802.561523,436.609711 801.968384,435.589447 
	C802.552185,435.995758 803.133606,436.717926 803.733704,437.729309 
z"/>
<path fill="#1269A7" opacity="1.000000" stroke="none" 
	d="
M807.538330,443.749023 
	C806.999329,443.314606 806.458557,442.597443 805.900879,441.577271 
	C806.434937,442.004944 806.985779,442.735626 807.538330,443.749023 
z"/>
<path fill="#1269A7" opacity="1.000000" stroke="none" 
	d="
M787.672852,415.718750 
	C787.154053,415.608551 786.605042,415.194702 786.004395,414.511536 
	C786.011414,413.972260 786.123779,413.726959 786.436523,413.371338 
	C786.936279,413.962585 787.289490,414.688843 787.672852,415.718750 
z"/>
<path fill="#1269A7" opacity="1.000000" stroke="none" 
	d="
M828.568909,490.713043 
	C828.034241,490.103149 827.544861,489.175140 827.115662,487.884491 
	C827.655273,488.479584 828.134705,489.437256 828.568909,490.713043 
z"/>
<path fill="#1269A7" opacity="1.000000" stroke="none" 
	d="
M799.712646,431.723206 
	C799.181091,431.484467 798.625916,430.949310 798.084778,430.091248 
	C798.628906,430.321106 799.158997,430.873932 799.712646,431.723206 
z"/>
<path fill="#1269A7" opacity="1.000000" stroke="none" 
	d="
M805.772095,440.772247 
	C805.221130,440.491211 804.654602,439.900818 804.119751,438.968842 
	C804.686462,439.239105 805.221497,439.850983 805.772095,440.772247 
z"/>
<path fill="#1269A7" opacity="1.000000" stroke="none" 
	d="
M834.045776,606.752197 
	C833.569092,606.872986 833.335938,606.689392 833.082886,606.208252 
	C832.992676,606.000000 832.998535,605.502380 833.000488,605.253662 
	C833.263123,604.998840 833.522949,604.980896 833.977295,604.944397 
	C834.188049,605.470886 834.203491,606.004089 834.045776,606.752197 
z"/>
<path fill="#1269A7" opacity="1.000000" stroke="none" 
	d="
M821.667908,471.709473 
	C821.141113,471.370331 820.635132,470.715820 820.198730,469.710266 
	C820.741821,470.037537 821.215271,470.715820 821.667908,471.709473 
z"/>
<path fill="#1269A7" opacity="1.000000" stroke="none" 
	d="
M838.717651,550.641479 
	C838.496582,550.434448 838.363647,549.915649 838.388306,549.237915 
	C838.632568,549.495850 838.719177,549.912720 838.717651,550.641479 
z"/>
<path fill="#1269A7" opacity="1.000000" stroke="none" 
	d="
M838.783386,561.648926 
	C838.559143,561.420593 838.446655,560.880432 838.516357,560.191467 
	C838.764160,560.474182 838.829712,560.905579 838.783386,561.648926 
z"/>
<path fill="#1269A7" opacity="1.000000" stroke="none" 
	d="
M813.693359,454.727417 
	C813.380859,454.827362 813.191406,454.608948 813.074646,454.086792 
	C813.390320,453.951324 813.613281,454.159973 813.693359,454.727417 
z"/>
<path fill="#1269A7" opacity="1.000000" stroke="none" 
	d="
M831.987427,615.631958 
	C831.868164,615.647705 831.900696,615.338623 831.941345,615.188721 
	C832.235657,615.174622 832.277222,615.367065 831.987427,615.631958 
z"/>
<path fill="#1269A7" opacity="1.000000" stroke="none" 
	d="
M816.183960,459.591370 
	C815.898804,459.631561 815.573792,459.343872 815.226196,458.715393 
	C815.517090,458.670929 815.830627,458.967224 816.183960,459.591370 
z"/>
<path fill="#FEFEFE" opacity="1.000000" stroke="none" 
	d="
M735.700317,599.120422 
	C735.551697,599.540771 735.403076,599.961121 735.035645,600.956177 
	C734.793579,602.394836 734.770325,603.258728 734.747070,604.122681 
	C734.573547,604.537231 734.400024,604.951782 734.011719,605.902283 
	C733.760010,606.999878 733.723145,607.561523 733.686279,608.123169 
	C733.508484,608.531921 733.330627,608.940613 732.925049,609.954712 
	C732.283142,612.406067 731.868958,614.252014 731.454834,616.098022 
	C731.271545,616.748169 731.088318,617.398254 730.583435,618.594788 
	C729.714722,621.133057 729.167603,623.125000 728.620483,625.116882 
	C728.261353,625.967346 727.902222,626.817810 727.267212,628.210938 
	C726.761108,629.527100 726.530823,630.300598 726.300537,631.074097 
	C726.055664,631.637390 725.810852,632.200684 725.287842,633.305237 
	C724.214172,635.935913 723.418701,638.025330 722.623291,640.114746 
	C721.192749,642.989258 719.762207,645.863831 718.044373,649.076782 
	C717.757141,649.415161 717.595581,649.700928 717.595581,649.700928 
	C717.595581,649.700928 717.806885,649.952271 717.806885,649.952271 
	C716.949402,651.427795 716.091919,652.903259 714.864502,654.910156 
	C713.077148,657.981934 711.659729,660.522278 710.242371,663.062622 
	C709.507935,664.096252 708.773499,665.129944 707.684082,666.596619 
	C706.973083,667.709839 706.617065,668.390076 706.261108,669.070251 
	C706.261047,669.070251 705.940186,669.310059 705.600647,669.625854 
	C704.886780,670.641907 704.512451,671.342163 704.138184,672.042419 
	C704.138184,672.042419 703.841980,672.236023 703.539978,672.545532 
	C703.109497,673.203796 702.981079,673.552551 702.852600,673.901245 
	C702.852600,673.901245 702.981995,673.957703 702.644165,673.997864 
	C701.932922,674.719177 701.559509,675.400269 701.186157,676.081421 
	C700.816711,676.488770 700.447266,676.896118 699.696899,677.662109 
	C698.885071,678.684753 698.454102,679.348755 698.023132,680.012695 
	C696.765442,681.461853 695.507751,682.911011 693.814331,684.717407 
	C692.973267,685.733093 692.568054,686.391602 692.162781,687.050049 
	C692.162781,687.050049 691.863098,687.224182 691.519653,687.492065 
	C690.986450,688.100891 690.796753,688.441956 690.607056,688.783020 
	C688.487122,690.949951 686.367126,693.116882 683.815002,695.634338 
	C683.191528,696.290344 683.000244,696.595825 682.808960,696.901306 
	C680.027527,699.539368 677.246033,702.177429 674.034363,705.089050 
	C673.276611,705.510803 673.163574,705.757385 673.265137,706.102356 
	C673.265137,706.102356 673.112793,706.078735 672.789551,706.177124 
	C671.216492,707.463074 669.966736,708.650635 668.717041,709.838257 
	C667.935791,710.421204 667.154541,711.004089 665.893555,711.847107 
	C664.879333,712.679016 664.344910,713.250854 663.810486,713.822754 
	C663.810486,713.822754 663.936157,713.955383 663.549927,713.921875 
	C660.653809,715.853943 658.144043,717.819580 655.634216,719.785278 
	C655.634216,719.785278 655.267456,719.932190 654.867065,720.114014 
	C653.876953,720.805481 653.287292,721.315247 652.697632,721.825073 
	C650.981140,722.845825 649.264648,723.866577 647.023193,725.129639 
	C645.909973,725.862488 645.321594,726.353027 644.733215,726.843506 
	C644.733215,726.843506 644.333313,726.941772 643.858154,727.118530 
	C641.528076,728.496216 639.673279,729.697083 637.818481,730.897949 
	C637.818481,730.898010 637.391968,730.969604 636.881836,731.083496 
	C634.398621,732.338745 632.425537,733.480164 630.452515,734.621582 
	C630.122986,734.733582 629.793396,734.845520 628.937134,735.132812 
	C626.891174,736.175659 625.371887,737.043274 623.852600,737.910889 
	C623.852600,737.910889 623.406677,737.952454 622.842590,738.021545 
	C616.256897,740.422913 610.253174,742.802734 604.207825,745.071777 
	C599.757080,746.742249 595.251892,748.267822 590.770996,749.857910 
	C581.500916,751.688538 572.277466,753.811584 562.952393,755.296753 
	C530.656250,760.440491 498.737579,758.759705 467.043854,750.374817 
	C427.108459,739.809631 391.841431,721.149536 362.570404,691.770996 
	C336.849182,665.955322 321.521332,634.825073 315.857544,598.887878 
	C314.485962,590.184998 313.249878,581.460693 311.819580,572.336914 
	C312.358978,568.733215 313.477356,570.537842 314.902771,571.480591 
	C328.592377,580.534607 341.778839,590.548706 356.190155,598.270691 
	C385.889954,614.184570 418.095337,621.359985 451.725708,619.479187 
	C464.123840,618.785767 476.317139,614.429871 489.207001,611.479065 
	C491.545227,610.476379 493.280304,609.739136 495.307373,609.020142 
	C496.077026,608.733032 496.554718,608.427734 497.384186,608.120178 
	C499.172699,607.368774 500.609436,606.619629 502.344055,605.872986 
	C502.950684,605.641968 503.259521,605.408508 503.912933,605.168213 
	C508.859619,602.506165 513.461731,599.850891 518.363403,597.167725 
	C519.113647,596.774414 519.564331,596.409058 520.307373,596.014282 
	C520.836792,595.688416 521.073914,595.391968 521.648071,595.069824 
	C527.008667,591.036743 532.032104,587.029236 537.368896,582.908020 
	C545.318848,573.852722 552.955444,564.911194 560.592102,555.969604 
	C561.376953,554.914612 562.161743,553.859558 563.280090,552.319458 
	C563.861328,551.258911 564.109131,550.683472 564.356934,550.108093 
	C564.954773,549.405334 565.552551,548.702576 566.476807,547.582886 
	C566.927734,546.806274 567.052185,546.446533 567.176575,546.086792 
	C570.103577,540.658386 573.030640,535.229980 576.210693,529.327759 
	C576.718994,528.594360 576.769592,528.299683 576.615479,527.969849 
	C576.835022,527.679016 577.054626,527.388184 577.607788,526.626709 
	C578.426819,524.731812 578.912170,523.307556 579.397461,521.883301 
	C579.614868,521.551025 579.832214,521.218811 580.385498,520.466614 
	C580.912659,519.324768 581.103943,518.602905 581.295227,517.880981 
	C581.782837,517.081909 582.270508,516.282837 583.091309,514.945557 
	C584.416626,511.899414 585.408813,509.391388 586.401001,506.883392 
	C587.336548,504.984100 588.272095,503.084808 589.526001,500.673523 
	C589.916809,499.785950 589.989258,499.410431 590.061768,499.034882 
	C590.061768,499.034882 589.995361,499.014099 590.285706,498.869995 
	C590.872131,497.781281 591.168274,496.836700 591.464355,495.892090 
	C592.415344,494.011841 593.366333,492.131622 594.622375,489.735046 
	C595.020874,488.847168 595.114319,488.475647 595.207764,488.104065 
	C595.742615,487.222351 596.277466,486.340607 597.147522,484.976288 
	C598.127991,483.065582 598.773254,481.637451 599.418579,480.209351 
	C600.816162,478.168304 602.213745,476.127197 603.908203,473.791687 
	C604.205017,473.497253 604.354309,473.255035 604.354309,473.255035 
	C604.354309,473.255035 604.153809,473.053070 604.153809,473.053101 
	C604.638977,472.529449 605.124084,472.005768 606.010254,471.131531 
	C606.737549,470.593140 606.845093,470.319397 606.733887,469.959747 
	C606.733887,469.959747 607.053040,469.707031 607.388672,469.414459 
	C607.896667,468.790344 608.069092,468.458801 608.241455,468.127289 
	C612.056763,464.988861 615.872009,461.850403 620.178162,458.403809 
	C620.907532,457.806549 621.146057,457.517487 621.384521,457.228394 
	C621.741089,457.075897 622.097717,456.923431 622.919556,456.609314 
	C623.795959,456.140076 624.207092,455.832458 624.618286,455.524841 
	C625.547302,455.051056 626.476318,454.577301 628.035889,453.941559 
	C631.111816,452.752838 633.557251,451.726105 636.002686,450.699341 
	C636.434631,450.663361 636.866577,450.627319 637.935425,450.521942 
	C640.369995,449.913025 642.167603,449.373474 643.965271,448.833954 
	C644.704590,448.786865 645.443909,448.739777 646.990356,448.697052 
	C650.904358,448.554138 654.011292,448.406860 657.118225,448.259583 
	C659.455627,448.494080 661.792969,448.728577 664.858887,449.149658 
	C668.747070,450.140045 671.906677,450.943787 675.066284,451.747528 
	C675.418091,451.898773 675.769836,452.050018 676.670532,452.440857 
	C678.775757,453.198364 680.332153,453.716278 681.888550,454.234192 
	C683.834167,455.298676 685.779846,456.363190 688.224487,457.742462 
	C689.076233,458.173981 689.429077,458.290710 689.781860,458.407440 
	C690.856689,459.156647 691.931458,459.905823 693.269775,460.908936 
	C693.533325,461.162842 693.779724,461.253448 693.779724,461.253448 
	C693.779724,461.253448 693.809631,460.992035 693.809631,460.992035 
	C694.594177,461.590942 695.378723,462.189880 696.602051,463.224915 
	C697.715149,464.032135 698.389343,464.403229 699.063599,464.774323 
	C699.813599,465.454620 700.563660,466.134918 701.685791,467.249817 
	C703.054382,468.407227 704.050842,469.129974 705.047241,469.852722 
	C710.146301,476.106171 715.245300,482.359558 720.587891,489.203552 
	C721.837219,491.280212 722.842957,492.766266 723.848755,494.252289 
	C724.000305,494.763702 724.151794,495.275085 724.542664,496.261841 
	C725.057251,497.006683 725.332458,497.276215 725.607666,497.545746 
	C726.709961,500.147278 727.812256,502.748810 729.046509,505.993225 
	C729.687744,507.572388 730.196960,508.508759 730.706238,509.445099 
	C730.706238,509.445099 730.680054,509.768219 730.733948,510.171967 
	C730.895203,510.722198 731.002625,510.868713 731.110046,511.015259 
	C731.577209,512.415466 732.044373,513.815613 732.585205,515.882690 
	C733.194275,518.014404 733.729736,519.479187 734.265137,520.943970 
	C734.297913,521.387695 734.330627,521.831421 734.396118,522.944214 
	C735.048035,525.721680 735.667175,527.830139 736.286377,529.938538 
	C736.295715,530.381531 736.305115,530.824463 736.313232,531.948486 
	C736.662354,534.055847 737.012634,535.482178 737.362915,536.908508 
	C737.360168,537.361450 737.357361,537.814453 737.384888,538.971924 
	C737.712585,542.118652 738.009949,544.560730 738.307312,547.002869 
	C738.332031,548.366333 738.356689,549.729858 738.340088,551.951904 
	C738.416870,559.911194 738.535034,567.011780 738.653137,574.112427 
	C738.533508,574.832947 738.413879,575.553467 738.179077,577.033630 
	C737.947083,580.566711 737.830200,583.340210 737.713318,586.113647 
	C737.572815,586.539978 737.432312,586.966248 737.065063,587.988037 
	C736.806458,589.763428 736.774658,590.943420 736.742920,592.123413 
	C736.516785,593.156006 736.290649,594.188538 735.899231,595.889099 
	C735.722778,597.411499 735.711548,598.265991 735.700317,599.120422 
z"/>
<path fill="#FEFEFE" opacity="1.000000" stroke="none" 
	d="
M496.701721,472.911011 
	C496.395752,473.254608 496.089783,473.598175 495.551208,474.365784 
	C495.226074,475.195923 495.133484,475.602051 495.040955,476.008179 
	C495.040955,476.008179 494.992523,476.008392 494.715210,476.200409 
	C487.765259,488.533966 478.326050,498.082855 466.557343,505.785706 
	C464.449524,506.803528 462.688568,507.809448 460.583252,508.794739 
	C459.672882,509.124969 459.106812,509.475769 458.293762,509.761292 
	C457.634216,509.954681 457.221680,510.213409 456.571838,510.463440 
	C456.334534,510.454681 455.989136,510.780670 455.626343,510.756775 
	C454.838989,510.949310 454.414398,511.165741 453.640320,511.301270 
	C451.963806,511.724640 450.636810,512.228882 449.260742,512.672668 
	C449.211609,512.612183 449.057587,512.636169 448.675140,512.629395 
	C447.935974,512.939758 447.579254,513.256958 447.146606,513.582031 
	C447.070679,513.589844 446.922791,513.552185 446.624390,513.253540 
	C441.537476,512.996338 436.748962,513.037842 431.737244,512.954102 
	C431.349274,512.873047 431.184479,512.917236 430.767822,512.827515 
	C430.147156,512.740601 429.778351,512.787537 429.245422,512.648438 
	C428.764557,512.251038 428.455933,512.262085 427.785278,512.263550 
	C425.715759,511.773071 424.016479,511.514740 422.317169,511.256378 
	C410.156036,506.494110 399.101776,500.100220 389.557190,490.956360 
	C375.578094,477.564209 365.520508,461.819550 359.000549,443.661469 
	C349.771515,417.958740 348.723877,391.479950 352.403442,364.833649 
	C355.512939,342.315796 364.339294,321.692993 376.423859,302.465576 
	C396.303101,270.836090 422.361938,246.043884 456.651031,230.584000 
	C484.746704,217.916534 514.083130,213.900635 544.684998,218.419479 
	C586.761902,224.632736 621.207275,244.727341 650.088623,275.263977 
	C669.075500,295.338928 680.719727,319.306946 687.308228,345.902466 
	C688.370178,350.189362 688.851929,354.620026 689.299927,359.263733 
	C664.041382,356.639771 639.176453,356.499115 614.514648,362.096893 
	C570.986694,371.976990 538.120728,396.182068 516.493042,435.337036 
	C510.057343,446.988312 503.947601,458.819672 497.418762,471.093140 
	C496.999939,472.048828 496.850830,472.479919 496.701721,472.911011 
z"/>
<path fill="#018FB0" opacity="1.000000" stroke="none" 
	d="
M422.135956,511.615173 
	C424.016479,511.514740 425.715759,511.773071 427.963501,512.400513 
	C428.511963,512.769592 428.955200,512.877808 428.955200,512.877808 
	C428.955200,512.877808 429.409515,512.834473 429.409515,512.834473 
	C429.778351,512.787537 430.147156,512.740601 430.832031,513.003052 
	C431.418884,513.234802 431.689636,513.157104 431.960419,513.079346 
	C436.748962,513.037842 441.537476,512.996338 446.665710,513.661682 
	C448.267059,517.007507 449.423706,519.703186 450.812653,522.273376 
	C453.547607,527.334351 456.285370,532.401550 459.251587,537.328003 
	C463.749512,544.798584 467.627014,552.846313 473.218658,559.413696 
	C486.005402,574.431641 501.883179,586.056152 518.063782,597.195618 
	C513.461731,599.850891 508.859619,602.506165 503.611908,605.169617 
	C502.659607,605.408691 502.352905,605.639587 502.046204,605.870483 
	C500.609436,606.619629 499.172699,607.368774 497.228424,607.870605 
	C496.152374,608.082825 495.583893,608.542297 495.015381,609.001831 
	C493.280304,609.739136 491.545227,610.476379 489.454163,611.214294 
	C485.304169,608.852539 481.456421,606.570435 477.742615,604.088013 
	C476.259705,603.096802 475.003418,601.728699 473.763550,600.418884 
	C470.033112,596.477966 466.428284,592.416443 462.647522,588.525330 
	C459.078308,584.851868 455.351227,581.331726 451.684052,577.753906 
	C451.332184,577.410645 450.804840,577.209351 450.541382,576.819031 
	C447.687012,572.590210 444.607025,568.485352 442.097351,564.058228 
	C437.257446,555.520630 432.563416,546.888123 428.174683,538.112061 
	C426.003967,533.771240 424.639038,529.026611 422.923096,524.459595 
	C421.610199,520.965454 420.318665,517.463379 418.871399,513.571716 
	C419.480438,513.256104 420.717590,512.614990 422.135956,511.615173 
z"/>
<path fill="#3483B1" opacity="1.000000" stroke="none" 
	d="
M591.186157,749.922119 
	C595.251892,748.267822 599.757080,746.742249 604.207825,745.071777 
	C610.253174,742.802734 616.256897,740.422913 622.650513,738.136719 
	C616.507690,741.100159 610.079102,744.236389 603.444580,746.850037 
	C599.670654,748.336731 595.560242,748.969177 591.186157,749.922119 
z"/>
<path fill="#3483B1" opacity="1.000000" stroke="none" 
	d="
M656.003296,719.834351 
	C658.144043,717.819580 660.653809,715.853943 663.508057,713.840637 
	C661.359070,715.823059 658.865723,717.853210 656.003296,719.834351 
z"/>
<path fill="#3483B1" opacity="1.000000" stroke="none" 
	d="
M710.570190,662.998047 
	C711.659729,660.522278 713.077148,657.981934 714.769897,655.262207 
	C713.662781,657.699707 712.280334,660.316589 710.570190,662.998047 
z"/>
<path fill="#3483B1" opacity="1.000000" stroke="none" 
	d="
M722.925049,639.990051 
	C723.418701,638.025330 724.214172,635.935913 725.254517,633.613159 
	C724.741821,635.541687 723.984314,637.703552 722.925049,639.990051 
z"/>
<path fill="#3483B1" opacity="1.000000" stroke="none" 
	d="
M638.180847,730.930359 
	C639.673279,729.697083 641.528076,728.496216 643.726196,727.276611 
	C642.227417,728.492859 640.385315,729.727844 638.180847,730.930359 
z"/>
<path fill="#3483B1" opacity="1.000000" stroke="none" 
	d="
M630.828125,734.724182 
	C632.425537,733.480164 634.398621,732.338745 636.719116,731.225830 
	C635.112305,732.445190 633.158081,733.635986 630.828125,734.724182 
z"/>
<path fill="#3483B1" opacity="1.000000" stroke="none" 
	d="
M728.900513,625.001770 
	C729.167603,623.125000 729.714722,621.133057 730.540527,618.931152 
	C730.880127,619.225891 730.941040,619.730652 731.005005,620.617676 
	C730.398865,622.295593 729.789673,623.591125 728.900513,625.001770 
z"/>
<path fill="#3483B1" opacity="1.000000" stroke="none" 
	d="
M669.069031,709.879028 
	C669.966736,708.650635 671.216492,707.463074 672.791870,706.254150 
	C671.885315,707.461853 670.653198,708.690918 669.069031,709.879028 
z"/>
<path fill="#3483B1" opacity="1.000000" stroke="none" 
	d="
M624.215576,737.963013 
	C625.371887,737.043274 626.891174,736.175659 628.745850,735.313721 
	C627.580322,736.217957 626.079407,737.116516 624.215576,737.963013 
z"/>
<path fill="#015FA0" opacity="1.000000" stroke="none" 
	d="
M830.793945,615.732605 
	C830.819031,616.523499 830.660156,617.091248 830.260254,617.836792 
	C830.216125,617.179565 830.413147,616.344482 830.793945,615.732605 
z"/>
<path fill="#3483B1" opacity="1.000000" stroke="none" 
	d="
M701.505859,676.029541 
	C701.559509,675.400269 701.932922,674.719177 702.591980,673.950317 
	C702.526978,674.567566 702.176270,675.272583 701.505859,676.029541 
z"/>
<path fill="#3483B1" opacity="1.000000" stroke="none" 
	d="
M726.640808,630.974548 
	C726.530823,630.300598 726.761108,629.527100 727.236328,628.560181 
	C727.314514,629.202820 727.147766,630.038879 726.640808,630.974548 
z"/>
<path fill="#015FA0" opacity="1.000000" stroke="none" 
	d="
M823.722534,642.034241 
	C823.843628,642.560303 823.669006,643.113586 823.252930,643.837036 
	C823.149963,643.358704 823.288391,642.710022 823.722534,642.034241 
z"/>
<path fill="#3483B1" opacity="1.000000" stroke="none" 
	d="
M706.579956,669.007751 
	C706.617065,668.390076 706.973083,667.709839 707.599487,666.901611 
	C707.546143,667.497559 707.222412,668.221375 706.579956,669.007751 
z"/>
<path fill="#3483B1" opacity="1.000000" stroke="none" 
	d="
M704.472290,671.988464 
	C704.512451,671.342163 704.886780,670.641907 705.540527,669.816895 
	C705.482117,670.439636 705.144287,671.187073 704.472290,671.988464 
z"/>
<path fill="#3483B1" opacity="1.000000" stroke="none" 
	d="
M698.355225,679.973877 
	C698.454102,679.348755 698.885071,678.684753 699.614014,677.930054 
	C699.503845,678.537903 699.095581,679.236511 698.355225,679.973877 
z"/>
<path fill="#3483B1" opacity="1.000000" stroke="none" 
	d="
M692.476746,687.006714 
	C692.568054,686.391602 692.973267,685.733093 693.673889,685.006836 
	C693.576416,685.613831 693.183533,686.288635 692.476746,687.006714 
z"/>
<path fill="#3483B1" opacity="1.000000" stroke="none" 
	d="
M664.144287,713.859436 
	C664.344910,713.250854 664.879333,712.679016 665.722412,712.085205 
	C665.513306,712.674194 664.995667,713.285156 664.144287,713.859436 
z"/>
<path fill="#3483B1" opacity="1.000000" stroke="none" 
	d="
M653.025024,721.870728 
	C653.287292,721.315247 653.876953,720.805481 654.770630,720.286377 
	C654.500549,720.823425 653.926453,721.369873 653.025024,721.870728 
z"/>
<path fill="#3483B1" opacity="1.000000" stroke="none" 
	d="
M645.052246,726.891113 
	C645.321594,726.353027 645.909973,725.862488 646.796021,725.378906 
	C646.519531,725.903442 645.945435,726.421082 645.052246,726.891113 
z"/>
<path fill="#3483B1" opacity="1.000000" stroke="none" 
	d="
M703.137939,673.795105 
	C702.981079,673.552551 703.109497,673.203796 703.488037,672.714722 
	C703.633179,672.945862 703.528198,673.317383 703.137939,673.795105 
z"/>
<path fill="#3483B1" opacity="1.000000" stroke="none" 
	d="
M690.920715,688.719116 
	C690.796753,688.441956 690.986450,688.100891 691.457153,687.653687 
	C691.570190,687.916687 691.402283,688.285950 690.920715,688.719116 
z"/>
<path fill="#3483B1" opacity="1.000000" stroke="none" 
	d="
M683.088562,696.846680 
	C683.000244,696.595825 683.191528,696.290344 683.654297,695.917358 
	C683.739868,696.164001 683.554016,696.478088 683.088562,696.846680 
z"/>
<path fill="#3483B1" opacity="1.000000" stroke="none" 
	d="
M673.454834,706.056274 
	C673.163574,705.757385 673.276611,705.510803 673.826233,705.367676 
	C674.026123,705.656311 673.891541,705.868835 673.454834,706.056274 
z"/>
<path fill="#3483B1" opacity="1.000000" stroke="none" 
	d="
M717.906494,649.901917 
	C717.806885,649.952271 717.595581,649.700928 717.595581,649.700928 
	C717.595581,649.700928 717.757141,649.415161 717.921814,649.424133 
	C718.086487,649.433105 718.006104,649.851562 717.906494,649.901917 
z"/>
<path fill="#016DA4" opacity="1.000000" stroke="none" 
	d="
M466.904175,505.773773 
	C478.326050,498.082855 487.765259,488.533966 494.729340,476.220093 
	C495.213623,476.924164 495.406433,477.800568 495.604156,478.699249 
	C499.371704,475.534363 502.914520,472.558289 506.457336,469.582214 
	C506.923523,469.813965 507.389709,470.045715 507.855896,470.277466 
	C505.650482,474.387848 504.991821,477.990448 510.106384,479.906830 
	C510.535309,480.067535 510.724426,481.013611 510.920105,481.628174 
	C512.343628,486.098663 513.939148,490.528015 515.073486,495.071960 
	C515.796143,497.966553 515.554688,501.097900 516.238159,504.007355 
	C516.888672,506.776276 518.121216,509.418427 519.201904,512.073975 
	C520.832703,516.081543 522.509521,520.003845 526.531982,522.432556 
	C527.844543,523.225098 529.256226,524.870728 529.463989,526.295166 
	C530.258240,531.741394 534.059082,535.091125 537.472107,538.709473 
	C538.727844,540.040710 540.472717,540.900208 541.931396,542.054626 
	C542.748962,542.701721 543.972656,543.433044 544.094788,544.261719 
	C544.754517,548.740662 547.401489,549.692627 551.579163,550.375366 
	C554.578674,550.865540 557.145447,554.003906 560.248657,555.965210 
	C552.955444,564.911194 545.318848,573.852722 537.057007,582.748413 
	C536.253845,581.389099 536.309692,579.982788 535.835327,578.786804 
	C535.306580,577.453857 534.575439,575.814514 533.443481,575.178040 
	C529.656311,573.048523 525.257690,571.845459 521.800354,569.319641 
	C510.055481,560.739136 498.833618,551.577271 493.943329,536.993042 
	C493.279510,535.013367 492.089294,533.166321 490.916962,531.408569 
	C486.261444,524.428467 481.278839,517.652832 476.919281,510.495819 
	C475.130341,507.558929 473.245697,506.685181 470.095520,507.028259 
	C469.089203,507.137878 467.971130,506.220978 466.904175,505.773773 
z"/>
<path fill="#3483B1" opacity="1.000000" stroke="none" 
	d="
M738.970825,573.915588 
	C738.535034,567.011780 738.416870,559.911194 738.427979,552.351196 
	C739.019592,553.167358 739.888367,554.447266 739.874939,555.717834 
	C739.811707,561.719543 739.507080,567.718689 738.970825,573.915588 
z"/>
<path fill="#0161A3" opacity="1.000000" stroke="none" 
	d="
M785.801636,460.269470 
	C785.467102,462.630341 785.025146,464.617889 784.583191,466.605408 
	C784.060974,466.697205 783.538757,466.788971 783.016541,466.880737 
	C782.433899,464.829193 781.851257,462.777679 781.268555,460.726135 
	C782.743774,460.449463 784.218994,460.172791 785.801636,460.269470 
z"/>
<path fill="#3483B1" opacity="1.000000" stroke="none" 
	d="
M656.943604,447.972046 
	C654.011292,448.406860 650.904358,448.554138 647.344360,448.584229 
	C650.183838,448.206177 653.476379,447.945343 656.943604,447.972046 
z"/>
<path fill="#3483B1" opacity="1.000000" stroke="none" 
	d="
M674.973999,451.398071 
	C671.906677,450.943787 668.747070,450.140045 665.302368,449.117615 
	C668.305420,449.615509 671.593567,450.332031 674.973999,451.398071 
z"/>
<path fill="#3483B1" opacity="1.000000" stroke="none" 
	d="
M635.742554,450.487427 
	C633.557251,451.726105 631.111816,452.752838 628.302551,453.775696 
	C630.453247,452.606354 632.967834,451.440918 635.742554,450.487427 
z"/>
<path fill="#3483B1" opacity="1.000000" stroke="none" 
	d="
M586.103516,507.006439 
	C585.408813,509.391388 584.416626,511.899414 583.159119,514.599854 
	C583.864563,512.238037 584.835266,509.683746 586.103516,507.006439 
z"/>
<path fill="#3483B1" opacity="1.000000" stroke="none" 
	d="
M738.010437,585.922852 
	C737.830200,583.340210 737.947083,580.566711 738.217041,577.398682 
	C738.349304,579.913391 738.328430,582.822693 738.010437,585.922852 
z"/>
<path fill="#3483B1" opacity="1.000000" stroke="none" 
	d="
M738.532410,546.699219 
	C738.009949,544.560730 737.712585,542.118652 737.535950,539.279785 
	C738.023682,541.387268 738.390625,543.891357 738.532410,546.699219 
z"/>
<path fill="#3483B1" opacity="1.000000" stroke="none" 
	d="
M736.510498,529.693237 
	C735.667175,527.830139 735.048035,525.721680 734.537476,523.248352 
	C735.342285,525.071594 736.038452,527.259705 736.510498,529.693237 
z"/>
<path fill="#3483B1" opacity="1.000000" stroke="none" 
	d="
M643.734009,448.598450 
	C642.167603,449.373474 640.369995,449.913025 638.223389,450.366333 
	C639.750549,449.641022 641.626709,449.001984 643.734009,448.598450 
z"/>
<path fill="#3483B1" opacity="1.000000" stroke="none" 
	d="
M731.762939,615.990845 
	C731.868958,614.252014 732.283142,612.406067 732.923340,610.292847 
	C732.789978,611.978333 732.430542,613.930969 731.762939,615.990845 
z"/>
<path fill="#3483B1" opacity="1.000000" stroke="none" 
	d="
M737.582642,536.664795 
	C737.012634,535.482178 736.662354,534.055847 736.433655,532.260010 
	C736.971008,533.400757 737.386719,534.910950 737.582642,536.664795 
z"/>
<path fill="#3483B1" opacity="1.000000" stroke="none" 
	d="
M734.473145,520.739258 
	C733.729736,519.479187 733.194275,518.014404 732.750122,516.216797 
	C733.454590,517.434204 734.067810,518.984375 734.473145,520.739258 
z"/>
<path fill="#3483B1" opacity="1.000000" stroke="none" 
	d="
M723.887695,493.890503 
	C722.842957,492.766266 721.837219,491.280212 720.815613,489.444489 
	C721.842041,490.572784 722.884399,492.050751 723.887695,493.890503 
z"/>
<path fill="#3483B1" opacity="1.000000" stroke="none" 
	d="
M737.010986,591.994507 
	C736.774658,590.943420 736.806458,589.763428 737.081848,588.326721 
	C737.310059,589.335205 737.294617,590.600464 737.010986,591.994507 
z"/>
<path fill="#3483B1" opacity="1.000000" stroke="none" 
	d="
M579.092407,522.019836 
	C578.912170,523.307556 578.426819,524.731812 577.680481,526.360840 
	C577.875427,525.095825 578.331299,523.626099 579.092407,522.019836 
z"/>
<path fill="#3483B1" opacity="1.000000" stroke="none" 
	d="
M599.077026,480.292480 
	C598.773254,481.637451 598.127991,483.065582 597.200989,484.669861 
	C597.524658,483.355865 598.130127,481.865723 599.077026,480.292480 
z"/>
<path fill="#3483B1" opacity="1.000000" stroke="none" 
	d="
M705.011353,469.515289 
	C704.050842,469.129974 703.054382,468.407227 701.961182,467.380371 
	C702.901428,467.776794 703.938416,468.477325 705.011353,469.515289 
z"/>
<path fill="#3483B1" opacity="1.000000" stroke="none" 
	d="
M681.733643,453.901764 
	C680.332153,453.716278 678.775757,453.198364 676.961060,452.437042 
	C678.328064,452.652191 679.953369,453.110748 681.733643,453.901764 
z"/>
<path fill="#3483B1" opacity="1.000000" stroke="none" 
	d="
M734.995483,604.008850 
	C734.770325,603.258728 734.793579,602.394836 735.049438,601.293701 
	C735.269409,602.002747 735.256653,602.948853 734.995483,604.008850 
z"/>
<path fill="#3483B1" opacity="1.000000" stroke="none" 
	d="
M735.954895,599.004517 
	C735.711548,598.265991 735.722778,597.411499 735.926331,596.289551 
	C736.148987,596.977539 736.179199,597.933105 735.954895,599.004517 
z"/>
<path fill="#3483B1" opacity="1.000000" stroke="none" 
	d="
M591.163086,496.001465 
	C591.168274,496.836700 590.872131,497.781281 590.313965,498.890808 
	C590.321899,498.074066 590.591919,497.092438 591.163086,496.001465 
z"/>
<path fill="#3483B1" opacity="1.000000" stroke="none" 
	d="
M730.791748,509.112091 
	C730.196960,508.508759 729.687744,507.572388 729.228394,506.304932 
	C729.811279,506.908936 730.344238,507.843994 730.791748,509.112091 
z"/>
<path fill="#3483B1" opacity="1.000000" stroke="none" 
	d="
M699.010315,464.457642 
	C698.389343,464.403229 697.715149,464.032135 696.940430,463.375732 
	C697.545715,463.440613 698.251343,463.790771 699.010315,464.457642 
z"/>
<path fill="#0161A3" opacity="1.000000" stroke="none" 
	d="
M773.954468,496.606995 
	C773.712158,496.209869 773.713806,495.814789 773.744202,495.421906 
	C773.745056,495.410767 774.051270,495.423279 774.215149,495.424774 
	C774.210938,495.819641 774.206726,496.214508 773.954468,496.606995 
z"/>
<path fill="#0161A3" opacity="1.000000" stroke="none" 
	d="
M774.045532,489.392944 
	C774.287842,489.790100 774.286133,490.185211 774.255859,490.578156 
	C774.255005,490.589264 773.948730,490.576782 773.784851,490.575287 
	C773.789062,490.180389 773.793274,489.785522 774.045532,489.392944 
z"/>
<path fill="#0161A3" opacity="1.000000" stroke="none" 
	d="
M776.608276,484.533600 
	C777.058533,484.649811 777.334473,484.933380 777.589172,485.234985 
	C777.595703,485.242706 777.368225,485.448029 777.249939,485.561218 
	C776.977051,485.275269 776.704163,484.989319 776.608276,484.533600 
z"/>
<path fill="#3483B1" opacity="1.000000" stroke="none" 
	d="
M733.918213,608.048584 
	C733.723145,607.561523 733.760010,606.999878 734.017334,606.241699 
	C734.208557,606.688171 734.179382,607.331116 733.918213,608.048584 
z"/>
<path fill="#3483B1" opacity="1.000000" stroke="none" 
	d="
M581.029053,518.012390 
	C581.103943,518.602905 580.912659,519.324768 580.451782,520.174072 
	C580.375732,519.582214 580.569275,518.863037 581.029053,518.012390 
z"/>
<path fill="#016DA4" opacity="1.000000" stroke="none" 
	d="
M564.037231,550.217957 
	C564.109131,550.683472 563.861328,551.258911 563.338257,551.993835 
	C563.281067,551.544861 563.499329,550.936340 564.037231,550.217957 
z"/>
<path fill="#3483B1" opacity="1.000000" stroke="none" 
	d="
M624.349121,455.417297 
	C624.207092,455.832458 623.795959,456.140076 623.125854,456.401245 
	C623.271301,456.006439 623.675598,455.658112 624.349121,455.417297 
z"/>
<path fill="#3483B1" opacity="1.000000" stroke="none" 
	d="
M621.081787,457.240112 
	C621.146057,457.517487 620.907532,457.806549 620.382568,458.142365 
	C620.323730,457.876648 620.551331,457.564240 621.081787,457.240112 
z"/>
<path fill="#016DA4" opacity="1.000000" stroke="none" 
	d="
M497.022583,472.748962 
	C496.850830,472.479919 496.999939,472.048828 497.445190,471.431854 
	C497.608734,471.692963 497.476074,472.139954 497.022583,472.748962 
z"/>
<path fill="#3483B1" opacity="1.000000" stroke="none" 
	d="
M604.066284,473.083618 
	C604.153809,473.053070 604.354309,473.255035 604.354309,473.255035 
	C604.354309,473.255035 604.205017,473.497253 604.063232,473.476990 
	C603.921509,473.456757 603.978760,473.114197 604.066284,473.083618 
z"/>
<path fill="#3483B1" opacity="1.000000" stroke="none" 
	d="
M725.642456,497.219971 
	C725.332458,497.276215 725.057251,497.006683 724.739380,496.445496 
	C725.023621,496.400635 725.350464,496.647430 725.642456,497.219971 
z"/>
<path fill="#3483B1" opacity="1.000000" stroke="none" 
	d="
M566.893066,546.204224 
	C567.052185,546.446533 566.927734,546.806274 566.542358,547.304993 
	C566.390808,547.069824 566.500244,546.695679 566.893066,546.204224 
z"/>
<path fill="#016DA4" opacity="1.000000" stroke="none" 
	d="
M495.286499,475.813141 
	C495.133484,475.602051 495.226074,475.195923 495.581360,474.605774 
	C495.740112,474.820526 495.636108,475.219299 495.286499,475.813141 
z"/>
<path fill="#3483B1" opacity="1.000000" stroke="none" 
	d="
M607.948853,468.199768 
	C608.069092,468.458801 607.896667,468.790344 607.452637,469.221222 
	C607.339355,468.971130 607.497803,468.621704 607.948853,468.199768 
z"/>
<path fill="#3483B1" opacity="1.000000" stroke="none" 
	d="
M731.268066,510.903168 
	C731.002625,510.868713 730.895203,510.722198 730.825317,510.305817 
	C731.050598,510.287659 731.238342,510.539368 731.268066,510.903168 
z"/>
<path fill="#3483B1" opacity="1.000000" stroke="none" 
	d="
M576.417786,528.092285 
	C576.769592,528.299683 576.718994,528.594360 576.259705,528.976074 
	C575.949768,528.773865 576.004578,528.479370 576.417786,528.092285 
z"/>
<path fill="#3483B1" opacity="1.000000" stroke="none" 
	d="
M693.783936,460.965576 
	C693.809631,460.992035 693.779724,461.253448 693.779724,461.253448 
	C693.779724,461.253448 693.533325,461.162842 693.575317,461.037476 
	C693.617310,460.912140 693.758179,460.939117 693.783936,460.965576 
z"/>
<path fill="#3483B1" opacity="1.000000" stroke="none" 
	d="
M606.527832,470.028503 
	C606.845093,470.319397 606.737549,470.593140 606.175903,470.814453 
	C605.938477,470.532166 606.065613,470.281921 606.527832,470.028503 
z"/>
<path fill="#3483B1" opacity="1.000000" stroke="none" 
	d="
M589.794922,499.190430 
	C589.989258,499.410431 589.916809,499.785950 589.606567,500.336914 
	C589.421997,500.123505 589.475098,499.734741 589.794922,499.190430 
z"/>
<path fill="#3483B1" opacity="1.000000" stroke="none" 
	d="
M689.685791,458.089050 
	C689.429077,458.290710 689.076233,458.173981 688.543701,457.838104 
	C688.772583,457.669525 689.181091,457.720123 689.685791,458.089050 
z"/>
<path fill="#3483B1" opacity="1.000000" stroke="none" 
	d="
M594.918945,488.241302 
	C595.114319,488.475647 595.020874,488.847168 594.691040,489.396851 
	C594.513184,489.176178 594.571655,488.777344 594.918945,488.241302 
z"/>
<path fill="#017BA8" opacity="1.000000" stroke="none" 
	d="
M466.557343,505.785706 
	C467.971130,506.220978 469.089203,507.137878 470.095520,507.028259 
	C473.245697,506.685181 475.130341,507.558929 476.919281,510.495819 
	C481.278839,517.652832 486.261444,524.428467 490.916962,531.408569 
	C492.089294,533.166321 493.279510,535.013367 493.943329,536.993042 
	C498.833618,551.577271 510.055481,560.739136 521.800354,569.319641 
	C525.257690,571.845459 529.656311,573.048523 533.443481,575.178040 
	C534.575439,575.814514 535.306580,577.453857 535.835327,578.786804 
	C536.309692,579.982788 536.253845,581.389099 536.743713,582.862183 
	C532.032104,587.029236 527.008667,591.036743 521.367432,595.125610 
	C520.504761,595.485962 520.259888,595.764832 520.015015,596.043701 
	C519.564331,596.409058 519.113647,596.774414 518.363403,597.167725 
	C501.883179,586.056152 486.005402,574.431641 473.218658,559.413696 
	C467.627014,552.846313 463.749512,544.798584 459.251587,537.328003 
	C456.285370,532.401550 453.547607,527.334351 450.812653,522.273376 
	C449.423706,519.703186 448.267059,517.007507 446.964111,513.960327 
	C446.922791,513.552185 447.070679,513.589844 447.532562,513.629333 
	C448.348846,513.324585 448.703217,512.980408 449.057587,512.636169 
	C449.057587,512.636169 449.211609,512.612183 449.670349,512.749756 
	C451.416046,512.385681 452.702942,511.883942 453.989838,511.382172 
	C454.414398,511.165741 454.838989,510.949310 455.725006,510.959778 
	C456.393982,510.948486 456.601562,510.710327 456.809143,510.472168 
	C457.221680,510.213409 457.634216,509.954681 458.654541,509.796326 
	C459.817413,509.536255 460.372498,509.175781 460.927582,508.815308 
	C462.688568,507.809448 464.449524,506.803528 466.557343,505.785706 
z"/>
<path fill="#01A4B8" opacity="1.000000" stroke="none" 
	d="
M495.307373,609.020142 
	C495.583893,608.542297 496.152374,608.082825 496.876648,607.872803 
	C496.554718,608.427734 496.077026,608.733032 495.307373,609.020142 
z"/>
<path fill="#01A4B8" opacity="1.000000" stroke="none" 
	d="
M502.344055,605.872986 
	C502.352905,605.639587 502.659607,605.408691 503.267303,605.176392 
	C503.259521,605.408508 502.950684,605.641968 502.344055,605.872986 
z"/>
<path fill="#018FB0" opacity="1.000000" stroke="none" 
	d="
M520.307373,596.014282 
	C520.259888,595.764832 520.504761,595.485962 521.030273,595.151306 
	C521.073914,595.391968 520.836792,595.688416 520.307373,596.014282 
z"/>
<path fill="#018FB0" opacity="1.000000" stroke="none" 
	d="
M453.640320,511.301300 
	C452.702942,511.883942 451.416046,512.385681 449.719482,512.810303 
	C450.636810,512.228882 451.963806,511.724640 453.640320,511.301300 
z"/>
<path fill="#018FB0" opacity="1.000000" stroke="none" 
	d="
M460.583252,508.794739 
	C460.372498,509.175781 459.817413,509.536255 458.901520,509.861664 
	C459.106812,509.475769 459.672882,509.124969 460.583252,508.794739 
z"/>
<path fill="#01A4B8" opacity="1.000000" stroke="none" 
	d="
M431.737244,512.954102 
	C431.689636,513.157104 431.418884,513.234802 431.083893,513.136963 
	C431.184479,512.917236 431.349274,512.873047 431.737244,512.954102 
z"/>
<path fill="#018FB0" opacity="1.000000" stroke="none" 
	d="
M456.571838,510.463440 
	C456.601562,510.710327 456.393982,510.948486 456.087769,510.983643 
	C455.989136,510.780670 456.334534,510.454681 456.571838,510.463440 
z"/>
<path fill="#01A4B8" opacity="1.000000" stroke="none" 
	d="
M429.245422,512.648499 
	C429.409515,512.834473 428.955200,512.877808 428.955200,512.877808 
	C428.955200,512.877808 428.511963,512.769592 428.333710,512.632629 
	C428.455933,512.262085 428.764557,512.251038 429.245422,512.648499 
z"/>
<path fill="#018FB0" opacity="1.000000" stroke="none" 
	d="
M448.675140,512.629395 
	C448.703217,512.980408 448.348846,513.324585 447.608459,513.621460 
	C447.579254,513.256958 447.935974,512.939758 448.675140,512.629395 
z"/>
</svg>